<svg width="575" height="125" viewBox="0 0 575 125" fill="none" xmlns="http://www.w3.org/2000/svg">
<rect width="575" height="125" fill="url(#paint0_linear_1_10)"/>
<path d="M67.88 71.312L65 69.584L63.912 67.216L59.752 62.928L59.304 61.968L56.936 58.896L56.552 57.744L56.424 58.192C56.3813 58.3627 56.36 58.7467 56.36 59.344C56.4027 59.9413 56.296 60.368 56.04 60.624C55.912 60.7947 55.7627 61.136 55.592 61.648C55.4213 62.1173 55.3147 62.4373 55.272 62.608L55.08 64.848C55.1227 64.9333 55.1653 64.9973 55.208 65.04C55.2933 65.0827 55.3573 65.1893 55.4 65.36C55.4427 65.5307 55.464 65.808 55.464 66.192C55.464 66.5333 55.4 67.0453 55.272 67.728C55.016 69.0507 54.9093 70.0747 54.952 70.8C55.0373 71.4827 55.08 71.8667 55.08 71.952C55.08 72.1227 55.1013 72.464 55.144 72.976C55.2293 73.4453 55.1867 74.1067 55.016 74.96C54.8027 76.5813 54.76 77.8827 54.888 78.864L54.184 79.248C54.0133 79.2053 53.7573 79.184 53.416 79.184C53.0747 79.184 52.6907 79.2053 52.264 79.248C51.88 79.248 51.4747 79.2693 51.048 79.312C50.6213 79.312 50.2587 79.312 49.96 79.312H49.128L46.44 79.952L44.776 79.056C44.776 78.3733 44.8613 77.6053 45.032 76.752C45.16 75.8987 45.2667 75.152 45.352 74.512C45.4373 73.872 45.48 73.3813 45.48 73.04C45.48 72.9547 45.4373 72.7627 45.352 72.464C45.2667 72.1227 45.2027 71.888 45.16 71.76L45.608 62.096C45.736 62.096 45.8213 61.9467 45.864 61.648C45.9067 61.3493 45.928 61.0293 45.928 60.688C45.928 60.3467 45.9067 60.0267 45.864 59.728C45.8213 59.3867 45.7787 59.1733 45.736 59.088C45.6933 59.0453 45.7147 58.8747 45.8 58.576C45.928 58.2773 46.0773 57.9573 46.248 57.616L46.696 56.656C46.7813 56.4853 46.8453 56.3787 46.888 56.336C46.9733 56.2507 47.0373 56.1867 47.08 56.144C47.1653 55.888 47.1867 55.6747 47.144 55.504C47.1013 55.3333 47.0373 55.1413 46.952 54.928C46.9093 54.7147 46.8667 54.416 46.824 54.032C46.7813 53.648 46.8027 53.0933 46.888 52.368C47.0587 50.9173 47.1867 49.7227 47.272 48.784C47.4 47.8027 47.464 47.184 47.464 46.928V45.456C47.3787 45.072 47.336 44.7093 47.336 44.368C47.3787 43.984 47.208 43.6853 46.824 43.472L46.888 42.64C47.0587 42.256 47.72 42.064 48.872 42.064H52.264C52.52 42.064 52.84 41.936 53.224 41.68C53.6507 41.424 54.12 41.2747 54.632 41.232C54.8453 41.1467 55.1013 41.04 55.4 40.912C55.6987 40.7413 55.912 40.656 56.04 40.656C56.2107 40.656 56.424 40.6987 56.68 40.784C56.9787 40.8693 57.2773 41.04 57.576 41.296V42.64L61.032 49.488L62.056 54.864L64.232 58.384L66.28 62.864L67.24 63.12L69.352 61.2C69.4373 60.9867 69.5227 60.752 69.608 60.496C69.736 60.24 69.8853 60.0053 70.056 59.792C70.312 59.3653 70.6107 58.896 70.952 58.384C71.336 57.872 71.784 57.3173 72.296 56.72C74.344 54.5013 75.24 52.9867 74.984 52.176L77.736 47.696C78.4613 47.9947 79.0587 47.9307 79.528 47.504C80.04 47.0347 80.4027 45.9893 80.616 44.368C80.616 44.2827 80.5947 44.1547 80.552 43.984C80.5093 43.7707 80.4453 43.5787 80.36 43.408C80.9147 43.152 81.2347 42.896 81.32 42.64C81.4053 42.384 81.448 42 81.448 41.488C81.96 41.2747 82.408 41.1467 82.792 41.104C83.2187 41.0187 83.6667 40.912 84.136 40.784L88.488 43.408C88.4453 43.792 88.4027 44.1973 88.36 44.624C88.3173 45.0507 88.2533 45.4987 88.168 45.968C88.0827 46.5653 87.9973 47.2053 87.912 47.888C87.8267 48.528 87.7413 49.168 87.656 49.808C87.6133 50.4053 87.5493 50.96 87.464 51.472C87.4213 51.984 87.3787 52.3893 87.336 52.688C87.2507 53.1147 87.1653 53.8613 87.08 54.928C86.9947 55.952 86.888 57.36 86.76 59.152C86.632 62.6933 87.08 64.7413 88.104 65.296C88.104 65.5947 88.0827 66.256 88.04 67.28C88.04 68.304 88.0187 69.776 87.976 71.696C87.9333 72.6347 87.912 73.4667 87.912 74.192C87.912 74.9173 87.912 75.5573 87.912 76.112V78.096C86.76 78.3947 85.544 78.672 84.264 78.928C83.0267 79.184 82.0453 79.312 81.32 79.312C81.0213 79.312 80.7227 79.2053 80.424 78.992C80.1253 78.7787 79.9333 78.4373 79.848 77.968C80.1467 77.712 80.296 77.584 80.296 77.584C80.3387 77.584 80.2533 77.4773 80.04 77.264V69.712L80.488 68.688H80.04V65.744C80.04 65.2747 80.0187 64.6347 79.976 63.824C79.9333 63.0133 79.8693 61.9893 79.784 60.752C79.656 59.5147 79.5707 58.576 79.528 57.936C79.4853 57.2533 79.464 56.8693 79.464 56.784C79.464 56.656 79.5707 56.3787 79.784 55.952C80.04 55.4827 80.2747 55.0987 80.488 54.8C80.5733 54.5867 80.5947 54.3733 80.552 54.16C80.552 53.904 80.5733 53.6907 80.616 53.52C80.616 53.3493 80.7013 53.2 80.872 53.072C81.0853 52.9013 81.2347 52.7733 81.32 52.688C81.2347 52.432 81.128 52.1547 81 51.856C80.9147 51.5573 80.872 51.3653 80.872 51.28C78.824 50.3413 78.2053 51.0453 79.016 53.392L77.544 56.592L73.128 63.12L69.16 70.736L67.88 71.312ZM126.236 57.808C126.236 57.936 126.193 58.1493 126.108 58.448C126.065 58.704 126.001 58.9813 125.916 59.28C125.83 59.5787 125.745 59.856 125.66 60.112C125.617 60.368 125.596 60.56 125.596 60.688C124.102 60.816 123.121 60.944 122.652 61.072C122.225 61.1573 121.969 61.2 121.884 61.2H117.596C116.956 61.2 116.465 61.2 116.124 61.2C115.782 61.1573 115.505 61.136 115.292 61.136C115.121 61.136 114.993 61.1573 114.908 61.2C114.822 61.2 114.694 61.2213 114.524 61.264L113.18 62.096L111.196 61.2C111.153 60.9867 110.94 60.752 110.556 60.496C110.214 60.24 109.98 59.9413 109.852 59.6L111.9 56.784C112.753 56.784 113.201 56.8053 113.244 56.848C113.329 56.848 113.35 56.8267 113.308 56.784C113.308 56.7413 113.436 56.6987 113.692 56.656C113.948 56.5707 114.246 56.5067 114.588 56.464L115.548 56.272C115.846 56.2293 117.233 56.2933 119.708 56.464C119.75 56.464 120.049 56.5707 120.604 56.784C120.817 56.8693 121.35 56.848 122.204 56.72C123.1 56.5493 124.102 56.464 125.212 56.464L126.236 57.808ZM126.492 75.216C126.406 75.472 126.342 75.7707 126.3 76.112C126.3 76.4533 126.342 76.688 126.428 76.816C126.342 76.9013 126.086 77.008 125.66 77.136C125.233 77.264 124.636 77.4773 123.868 77.776C123.057 77.9893 122.289 78.032 121.564 77.904C120.838 77.776 120.134 77.7973 119.452 77.968C117.361 77.968 115.206 78.288 112.988 78.928C112.39 79.0987 111.878 79.248 111.452 79.376C111.025 79.504 110.662 79.6107 110.364 79.696C110.193 79.7813 110.022 79.8453 109.852 79.888C109.724 79.888 109.596 79.9093 109.468 79.952L104.476 80.144C104.092 80.272 103.686 80.3147 103.26 80.272C102.833 80.1867 102.406 80.1013 101.98 80.016C101.553 79.888 101.169 79.76 100.828 79.632C100.486 79.504 100.209 79.44 99.9955 79.44C99.7822 79.44 99.4195 79.4613 98.9075 79.504C98.3955 79.504 97.9262 79.504 97.4995 79.504C97.0728 79.2053 96.6888 78.9067 96.3475 78.608C96.0062 78.2667 95.9848 77.6907 96.2835 76.88C96.3688 76.4533 96.5182 76.0267 96.7315 75.6C96.9875 75.1307 97.0728 74.6613 96.9875 74.192C96.9448 74.0213 96.8382 73.744 96.6675 73.36C96.5395 72.976 96.4328 72.5707 96.3475 72.144C96.3048 71.7173 96.3048 71.2907 96.3475 70.864C96.4328 70.4373 96.6675 70.0747 97.0515 69.776C97.3928 69.2213 97.5422 68.7093 97.4995 68.24C97.4568 67.728 97.2648 67.1947 96.9235 66.64C97.1795 66.3413 97.3288 66 97.3715 65.616C97.4568 65.1893 97.4782 64.784 97.4355 64.4C97.3928 64.016 97.3075 63.6747 97.1795 63.376C97.0942 63.0773 97.0088 62.864 96.9235 62.736C97.0515 62.1387 97.1795 61.3493 97.3075 60.368C97.4355 59.344 97.5422 58.32 97.6275 57.296C97.7555 56.2293 97.8408 55.248 97.8835 54.352C97.9262 53.456 97.9262 52.7947 97.8835 52.368C97.8408 51.8133 97.8835 51.2373 98.0115 50.64C98.1395 50.0427 98.2888 49.4453 98.4595 48.848C98.6302 48.208 98.7582 47.5893 98.8435 46.992C98.9288 46.3947 98.9075 45.84 98.7795 45.328L98.9075 44.944C98.9928 44.8587 98.8435 44.1973 98.4595 42.96L99.4835 40.72H99.5475C100.401 40.6773 101.276 40.6347 102.172 40.592C103.068 40.5493 103.878 40.5067 104.604 40.464C105.372 40.4213 105.99 40.4 106.46 40.4C106.972 40.3573 107.249 40.336 107.292 40.336H116.124C116.422 40.336 116.806 40.4853 117.276 40.784C117.788 41.04 119.494 41.168 122.396 41.168C122.438 41.3387 122.481 41.5093 122.524 41.68C122.566 41.8507 122.609 42.0213 122.652 42.192C122.78 42.96 122.929 43.5573 123.1 43.984L122.716 44.624C122.076 44.6667 121.585 44.688 121.244 44.688C120.902 44.688 120.646 44.688 120.476 44.688C120.348 44.6453 120.262 44.624 120.22 44.624C120.177 44.5813 120.134 44.56 120.092 44.56L115.1 43.92C113.862 43.664 112.326 43.8133 110.492 44.368C109.681 44.5813 109.02 44.6453 108.508 44.56C107.996 44.432 107.654 44.4107 107.484 44.496C106.972 44.3253 106.545 44.3253 106.204 44.496C105.862 44.6667 105.756 44.9867 105.884 45.456C106.012 45.8827 106.161 46.1387 106.332 46.224C106.502 46.3093 106.63 46.48 106.716 46.736C106.63 46.864 106.652 47.056 106.78 47.312C106.95 47.5253 107.142 47.7387 107.356 47.952C107.612 48.208 107.868 48.3787 108.124 48.464C108.38 48.5067 108.508 48.5493 108.508 48.592C108.508 48.6773 108.401 49.1253 108.188 49.936C107.974 50.704 107.804 51.6427 107.676 52.752C107.548 53.8613 107.505 55.056 107.548 56.336C107.633 57.616 107.953 58.8107 108.508 59.92C108.294 60.3893 108.102 61.2853 107.932 62.608C107.761 63.888 107.612 65.2107 107.484 66.576C107.398 67.9413 107.334 69.1787 107.292 70.288C107.249 71.3547 107.228 71.9307 107.228 72.016C107.185 72.016 107.121 72.1013 107.036 72.272C106.993 72.4 106.929 72.5493 106.844 72.72C106.758 72.8907 106.652 73.04 106.524 73.168C106.396 73.2533 106.246 73.2533 106.076 73.168V73.744C106.076 73.744 106.204 73.744 106.46 73.744H106.716C106.673 73.9573 106.652 74.256 106.652 74.64C106.652 75.024 106.63 75.344 106.588 75.6L111.452 74.96C112.305 75.0453 113.286 75.0667 114.396 75.024C115.548 74.9813 116.828 74.832 118.236 74.576C119.644 74.3627 120.796 74.2987 121.692 74.384C122.588 74.4693 123.249 74.32 123.676 73.936L125.276 73.872L126.492 75.216ZM155.568 71.312L152.688 69.584L151.6 67.216L147.44 62.928L146.992 61.968L144.624 58.896L144.24 57.744L144.112 58.192C144.069 58.3627 144.048 58.7467 144.048 59.344C144.09 59.9413 143.984 60.368 143.728 60.624C143.6 60.7947 143.45 61.136 143.28 61.648C143.109 62.1173 143.002 62.4373 142.96 62.608L142.768 64.848C142.81 64.9333 142.853 64.9973 142.896 65.04C142.981 65.0827 143.045 65.1893 143.088 65.36C143.13 65.5307 143.152 65.808 143.152 66.192C143.152 66.5333 143.088 67.0453 142.96 67.728C142.704 69.0507 142.597 70.0747 142.64 70.8C142.725 71.4827 142.768 71.8667 142.768 71.952C142.768 72.1227 142.789 72.464 142.832 72.976C142.917 73.4453 142.874 74.1067 142.704 74.96C142.49 76.5813 142.448 77.8827 142.576 78.864L141.872 79.248C141.701 79.2053 141.445 79.184 141.104 79.184C140.762 79.184 140.378 79.2053 139.952 79.248C139.568 79.248 139.162 79.2693 138.736 79.312C138.309 79.312 137.946 79.312 137.648 79.312H136.816L134.128 79.952L132.464 79.056C132.464 78.3733 132.549 77.6053 132.72 76.752C132.848 75.8987 132.954 75.152 133.04 74.512C133.125 73.872 133.168 73.3813 133.168 73.04C133.168 72.9547 133.125 72.7627 133.04 72.464C132.954 72.1227 132.89 71.888 132.848 71.76L133.296 62.096C133.424 62.096 133.509 61.9467 133.552 61.648C133.594 61.3493 133.616 61.0293 133.616 60.688C133.616 60.3467 133.594 60.0267 133.552 59.728C133.509 59.3867 133.466 59.1733 133.424 59.088C133.381 59.0453 133.402 58.8747 133.488 58.576C133.616 58.2773 133.765 57.9573 133.936 57.616L134.384 56.656C134.469 56.4853 134.533 56.3787 134.576 56.336C134.661 56.2507 134.725 56.1867 134.768 56.144C134.853 55.888 134.874 55.6747 134.832 55.504C134.789 55.3333 134.725 55.1413 134.64 54.928C134.597 54.7147 134.554 54.416 134.512 54.032C134.469 53.648 134.49 53.0933 134.576 52.368C134.746 50.9173 134.874 49.7227 134.96 48.784C135.088 47.8027 135.152 47.184 135.152 46.928V45.456C135.066 45.072 135.024 44.7093 135.024 44.368C135.066 43.984 134.896 43.6853 134.512 43.472L134.576 42.64C134.746 42.256 135.408 42.064 136.56 42.064H139.952C140.208 42.064 140.528 41.936 140.912 41.68C141.338 41.424 141.808 41.2747 142.32 41.232C142.533 41.1467 142.789 41.04 143.088 40.912C143.386 40.7413 143.6 40.656 143.728 40.656C143.898 40.656 144.112 40.6987 144.368 40.784C144.666 40.8693 144.965 41.04 145.264 41.296V42.64L148.72 49.488L149.744 54.864L151.92 58.384L153.968 62.864L154.928 63.12L157.04 61.2C157.125 60.9867 157.21 60.752 157.296 60.496C157.424 60.24 157.573 60.0053 157.744 59.792C158 59.3653 158.298 58.896 158.64 58.384C159.024 57.872 159.472 57.3173 159.984 56.72C162.032 54.5013 162.928 52.9867 162.672 52.176L165.424 47.696C166.149 47.9947 166.746 47.9307 167.216 47.504C167.728 47.0347 168.09 45.9893 168.304 44.368C168.304 44.2827 168.282 44.1547 168.24 43.984C168.197 43.7707 168.133 43.5787 168.048 43.408C168.602 43.152 168.922 42.896 169.008 42.64C169.093 42.384 169.136 42 169.136 41.488C169.648 41.2747 170.096 41.1467 170.48 41.104C170.906 41.0187 171.354 40.912 171.824 40.784L176.176 43.408C176.133 43.792 176.09 44.1973 176.048 44.624C176.005 45.0507 175.941 45.4987 175.856 45.968C175.77 46.5653 175.685 47.2053 175.6 47.888C175.514 48.528 175.429 49.168 175.344 49.808C175.301 50.4053 175.237 50.96 175.152 51.472C175.109 51.984 175.066 52.3893 175.024 52.688C174.938 53.1147 174.853 53.8613 174.768 54.928C174.682 55.952 174.576 57.36 174.448 59.152C174.32 62.6933 174.768 64.7413 175.792 65.296C175.792 65.5947 175.77 66.256 175.728 67.28C175.728 68.304 175.706 69.776 175.664 71.696C175.621 72.6347 175.6 73.4667 175.6 74.192C175.6 74.9173 175.6 75.5573 175.6 76.112V78.096C174.448 78.3947 173.232 78.672 171.952 78.928C170.714 79.184 169.733 79.312 169.008 79.312C168.709 79.312 168.41 79.2053 168.112 78.992C167.813 78.7787 167.621 78.4373 167.536 77.968C167.834 77.712 167.984 77.584 167.984 77.584C168.026 77.584 167.941 77.4773 167.728 77.264V69.712L168.176 68.688H167.728V65.744C167.728 65.2747 167.706 64.6347 167.664 63.824C167.621 63.0133 167.557 61.9893 167.472 60.752C167.344 59.5147 167.258 58.576 167.216 57.936C167.173 57.2533 167.152 56.8693 167.152 56.784C167.152 56.656 167.258 56.3787 167.472 55.952C167.728 55.4827 167.962 55.0987 168.176 54.8C168.261 54.5867 168.282 54.3733 168.24 54.16C168.24 53.904 168.261 53.6907 168.304 53.52C168.304 53.3493 168.389 53.2 168.56 53.072C168.773 52.9013 168.922 52.7733 169.008 52.688C168.922 52.432 168.816 52.1547 168.688 51.856C168.602 51.5573 168.56 51.3653 168.56 51.28C166.512 50.3413 165.893 51.0453 166.704 53.392L165.232 56.592L160.816 63.12L156.848 70.736L155.568 71.312ZM213.923 57.808C213.923 57.936 213.88 58.1493 213.795 58.448C213.752 58.704 213.688 58.9813 213.603 59.28C213.518 59.5787 213.432 59.856 213.347 60.112C213.304 60.368 213.283 60.56 213.283 60.688C211.79 60.816 210.808 60.944 210.339 61.072C209.912 61.1573 209.656 61.2 209.571 61.2H205.283C204.643 61.2 204.152 61.2 203.811 61.2C203.47 61.1573 203.192 61.136 202.979 61.136C202.808 61.136 202.68 61.1573 202.595 61.2C202.51 61.2 202.382 61.2213 202.211 61.264L200.867 62.096L198.883 61.2C198.84 60.9867 198.627 60.752 198.243 60.496C197.902 60.24 197.667 59.9413 197.539 59.6L199.587 56.784C200.44 56.784 200.888 56.8053 200.931 56.848C201.016 56.848 201.038 56.8267 200.995 56.784C200.995 56.7413 201.123 56.6987 201.379 56.656C201.635 56.5707 201.934 56.5067 202.275 56.464L203.235 56.272C203.534 56.2293 204.92 56.2933 207.395 56.464C207.438 56.464 207.736 56.5707 208.291 56.784C208.504 56.8693 209.038 56.848 209.891 56.72C210.787 56.5493 211.79 56.464 212.899 56.464L213.923 57.808ZM214.179 75.216C214.094 75.472 214.03 75.7707 213.987 76.112C213.987 76.4533 214.03 76.688 214.115 76.816C214.03 76.9013 213.774 77.008 213.347 77.136C212.92 77.264 212.323 77.4773 211.555 77.776C210.744 77.9893 209.976 78.032 209.251 77.904C208.526 77.776 207.822 77.7973 207.139 77.968C205.048 77.968 202.894 78.288 200.675 78.928C200.078 79.0987 199.566 79.248 199.139 79.376C198.712 79.504 198.35 79.6107 198.051 79.696C197.88 79.7813 197.71 79.8453 197.539 79.888C197.411 79.888 197.283 79.9093 197.155 79.952L192.163 80.144C191.779 80.272 191.374 80.3147 190.947 80.272C190.52 80.1867 190.094 80.1013 189.667 80.016C189.24 79.888 188.856 79.76 188.515 79.632C188.174 79.504 187.896 79.44 187.683 79.44C187.47 79.44 187.107 79.4613 186.595 79.504C186.083 79.504 185.614 79.504 185.187 79.504C184.76 79.2053 184.376 78.9067 184.035 78.608C183.694 78.2667 183.672 77.6907 183.971 76.88C184.056 76.4533 184.206 76.0267 184.419 75.6C184.675 75.1307 184.76 74.6613 184.675 74.192C184.632 74.0213 184.526 73.744 184.355 73.36C184.227 72.976 184.12 72.5707 184.035 72.144C183.992 71.7173 183.992 71.2907 184.035 70.864C184.12 70.4373 184.355 70.0747 184.739 69.776C185.08 69.2213 185.23 68.7093 185.187 68.24C185.144 67.728 184.952 67.1947 184.611 66.64C184.867 66.3413 185.016 66 185.059 65.616C185.144 65.1893 185.166 64.784 185.123 64.4C185.08 64.016 184.995 63.6747 184.867 63.376C184.782 63.0773 184.696 62.864 184.611 62.736C184.739 62.1387 184.867 61.3493 184.995 60.368C185.123 59.344 185.23 58.32 185.315 57.296C185.443 56.2293 185.528 55.248 185.571 54.352C185.614 53.456 185.614 52.7947 185.571 52.368C185.528 51.8133 185.571 51.2373 185.699 50.64C185.827 50.0427 185.976 49.4453 186.147 48.848C186.318 48.208 186.446 47.5893 186.531 46.992C186.616 46.3947 186.595 45.84 186.467 45.328L186.595 44.944C186.68 44.8587 186.531 44.1973 186.147 42.96L187.171 40.72H187.235C188.088 40.6773 188.963 40.6347 189.859 40.592C190.755 40.5493 191.566 40.5067 192.291 40.464C193.059 40.4213 193.678 40.4 194.147 40.4C194.659 40.3573 194.936 40.336 194.979 40.336H203.811C204.11 40.336 204.494 40.4853 204.963 40.784C205.475 41.04 207.182 41.168 210.083 41.168C210.126 41.3387 210.168 41.5093 210.211 41.68C210.254 41.8507 210.296 42.0213 210.339 42.192C210.467 42.96 210.616 43.5573 210.787 43.984L210.403 44.624C209.763 44.6667 209.272 44.688 208.931 44.688C208.59 44.688 208.334 44.688 208.163 44.688C208.035 44.6453 207.95 44.624 207.907 44.624C207.864 44.5813 207.822 44.56 207.779 44.56L202.787 43.92C201.55 43.664 200.014 43.8133 198.179 44.368C197.368 44.5813 196.707 44.6453 196.195 44.56C195.683 44.432 195.342 44.4107 195.171 44.496C194.659 44.3253 194.232 44.3253 193.891 44.496C193.55 44.6667 193.443 44.9867 193.571 45.456C193.699 45.8827 193.848 46.1387 194.019 46.224C194.19 46.3093 194.318 46.48 194.403 46.736C194.318 46.864 194.339 47.056 194.467 47.312C194.638 47.5253 194.83 47.7387 195.043 47.952C195.299 48.208 195.555 48.3787 195.811 48.464C196.067 48.5067 196.195 48.5493 196.195 48.592C196.195 48.6773 196.088 49.1253 195.875 49.936C195.662 50.704 195.491 51.6427 195.363 52.752C195.235 53.8613 195.192 55.056 195.235 56.336C195.32 57.616 195.64 58.8107 196.195 59.92C195.982 60.3893 195.79 61.2853 195.619 62.608C195.448 63.888 195.299 65.2107 195.171 66.576C195.086 67.9413 195.022 69.1787 194.979 70.288C194.936 71.3547 194.915 71.9307 194.915 72.016C194.872 72.016 194.808 72.1013 194.723 72.272C194.68 72.4 194.616 72.5493 194.531 72.72C194.446 72.8907 194.339 73.04 194.211 73.168C194.083 73.2533 193.934 73.2533 193.763 73.168V73.744C193.763 73.744 193.891 73.744 194.147 73.744H194.403C194.36 73.9573 194.339 74.256 194.339 74.64C194.339 75.024 194.318 75.344 194.275 75.6L199.139 74.96C199.992 75.0453 200.974 75.0667 202.083 75.024C203.235 74.9813 204.515 74.832 205.923 74.576C207.331 74.3627 208.483 74.2987 209.379 74.384C210.275 74.4693 210.936 74.32 211.363 73.936L212.963 73.872L214.179 75.216ZM247.689 79.12L246.921 79.376C246.323 79.5893 245.619 79.7387 244.809 79.824C244.041 79.8667 243.55 79.888 243.337 79.888C243.209 79.888 242.91 79.8667 242.441 79.824C242.014 79.7387 241.694 79.696 241.481 79.696C241.353 79.696 241.182 79.8027 240.969 80.016L238.089 78.992C238.089 78.7787 238.089 78.5867 238.089 78.416C238.131 78.2453 238.174 78.0533 238.217 77.84C238.302 77.2427 238.366 76.688 238.409 76.176C238.494 75.6213 238.494 75.1093 238.409 74.64C238.75 74.2987 238.793 73.2533 238.536 71.504C238.281 69.712 238.153 68.5813 238.153 68.112C238.153 67.984 238.195 67.6427 238.281 67.088C238.366 66.5333 238.451 66.0427 238.536 65.616C238.579 65.488 238.665 65.3173 238.793 65.104C238.963 64.8907 239.049 64.656 239.049 64.4C238.963 63.1627 239.006 62.16 239.177 61.392C239.39 60.5813 239.454 59.7707 239.369 58.96C239.326 58.7467 239.347 58.5333 239.433 58.32C239.518 58.1067 239.561 57.8293 239.561 57.488V55.376C239.561 54.7787 239.561 54.1173 239.561 53.392C239.561 52.624 239.582 51.7493 239.625 50.768C239.667 48.848 239.689 47.568 239.689 46.928C239.731 46.288 239.795 45.84 239.881 45.584C239.923 45.1573 240.03 44.816 240.201 44.56C240.414 44.304 240.521 43.8773 240.521 43.28C240.521 43.2373 240.435 43.1093 240.265 42.896C240.137 42.6827 239.966 42.4053 239.753 42.064C239.625 41.8933 239.539 41.68 239.497 41.424C239.454 41.168 239.433 40.9333 239.433 40.72C239.475 40.464 239.497 40.2507 239.497 40.08C239.539 39.9093 239.561 39.4187 239.561 38.608C240.713 38.2667 241.886 38.096 243.081 38.096C244.275 38.096 245.235 38.0533 245.961 37.968C246.217 37.9253 246.409 37.8827 246.537 37.84C246.707 37.7973 246.857 37.776 246.985 37.776C247.113 37.7333 247.262 37.712 247.433 37.712C247.646 37.6693 247.945 37.648 248.329 37.648C248.499 38.0747 248.734 38.544 249.033 39.056C249.331 39.568 249.566 40.0373 249.737 40.464C250.291 41.232 250.825 41.5947 251.337 41.552C251.849 41.5093 252.318 41.3173 252.745 40.976C253.214 40.6347 253.598 40.272 253.897 39.888C254.195 39.4613 254.387 39.248 254.473 39.248L261.705 39.312L267.208 43.088C267.422 43.3013 267.699 43.5573 268.041 43.856C268.382 44.112 268.745 44.4747 269.129 44.944C269.982 45.84 270.622 46.2667 271.049 46.224L272.585 48.464C272.499 48.592 272.307 48.976 272.009 49.616C271.753 50.2133 271.369 51.0667 270.857 52.176C269.875 54.48 269.385 56.272 269.385 57.552L268.104 58.32C267.251 58.6613 266.825 59.536 266.825 60.944C266.099 60.8587 264.905 61.136 263.241 61.776C262.771 61.9893 262.259 62.1387 261.705 62.224C261.15 62.2667 260.638 62.3093 260.169 62.352C259.87 62.3947 259.571 62.416 259.273 62.416C259.017 62.416 258.739 62.416 258.441 62.416L257.737 64.016C257.225 63.632 256.649 63.376 256.009 63.248C255.369 63.12 254.729 63.0773 254.089 63.12C253.491 63.1627 252.915 63.248 252.361 63.376C251.806 63.504 251.337 63.6533 250.953 63.824C249.545 64.336 248.819 64.592 248.777 64.592H248.393C248.435 64.6347 248.457 64.6987 248.457 64.784C248.371 65.2107 248.222 65.7227 248.009 66.32C247.838 66.8747 247.753 67.2587 247.753 67.472C247.753 67.728 247.774 68.0907 247.817 68.56C247.859 68.9867 247.902 69.5627 247.945 70.288C247.987 70.9707 248.009 71.5467 248.009 72.016C248.051 72.4853 248.073 72.848 248.073 73.104L248.329 74.832C248.414 75.1733 248.478 75.5147 248.521 75.856C248.563 76.1547 248.627 76.4747 248.713 76.816L247.689 79.12ZM250.057 44.816C250.057 45.1573 250.057 45.5627 250.057 46.032C250.099 46.5013 250.142 47.0347 250.185 47.632C250.398 50.2773 250.462 51.856 250.377 52.368C249.523 52.88 249.011 53.648 248.841 54.672C248.713 55.2267 248.585 55.76 248.457 56.272C248.329 56.7413 248.179 57.1467 248.009 57.488L247.881 57.616C247.881 58.0853 247.881 58.4267 247.881 58.64C247.923 58.8533 247.945 59.1093 247.945 59.408L249.161 60.24L250.377 59.92C250.377 60.8587 251.529 60.8373 253.833 59.856C256.094 58.9173 257.374 58.448 257.673 58.448H260.361C260.702 57.9787 261.107 57.488 261.577 56.976C262.046 56.4213 262.281 56.08 262.281 55.952L263.113 51.28L262.729 49.68L254.217 43.6H251.401L250.057 44.816ZM268.617 79.248C268.531 78.864 268.275 78.608 267.849 78.48C267.678 78.3093 267.614 78.0747 267.657 77.776C267.699 77.4773 267.657 77.2853 267.529 77.2C267.486 77.1147 267.443 77.072 267.401 77.072C267.358 77.072 267.294 77.0507 267.208 77.008C267.166 76.9227 267.038 76.7733 266.825 76.56C266.697 76.3893 266.547 76.2187 266.377 76.048C266.206 75.8347 266.014 75.5573 265.801 75.216C265.331 74.6187 264.969 74.1493 264.713 73.808C264.457 73.424 264.265 73.1893 264.137 73.104C263.966 73.0187 263.71 72.848 263.369 72.592C263.027 72.336 262.793 72.1867 262.665 72.144C262.537 72.016 262.43 71.8667 262.345 71.696C262.259 71.5253 262.174 71.3973 262.089 71.312C262.003 71.2267 261.897 70.928 261.769 70.416C261.641 69.904 261.513 69.456 261.385 69.072C260.915 68.6453 260.211 67.8773 259.273 66.768C258.974 66.4693 258.803 66.2773 258.761 66.192L259.593 64.976L262.665 66.512C262.707 66.5547 262.921 66.5547 263.305 66.512C263.731 66.4693 264.179 66.448 264.649 66.448C265.118 66.4053 265.566 66.4053 265.993 66.448C266.462 66.4907 266.761 66.6187 266.889 66.832C267.059 67.0453 267.273 67.1947 267.529 67.28C267.785 67.3653 268.041 67.4507 268.297 67.536C268.595 67.5787 268.83 67.6213 269.001 67.664C269.214 67.7067 269.342 67.792 269.385 67.92L270.665 70.288C270.835 70.5013 271.134 70.864 271.561 71.376C272.03 71.8453 272.649 72.5067 273.417 73.36C274.953 75.152 275.742 76.0693 275.785 76.112L275.593 78.352L270.472 79.824L268.617 79.248ZM314.998 50.768C315.169 51.7067 315.233 52.6453 315.19 53.584C315.19 54.48 315.169 55.3547 315.126 56.208C315.126 57.0613 315.147 57.8933 315.19 58.704C315.275 59.472 315.489 60.1973 315.83 60.88C315.702 61.0933 315.446 61.52 315.062 62.16C314.721 62.8 314.465 63.4613 314.294 64.144C314.123 64.784 314.145 65.2747 314.358 65.616C314.571 65.9573 314.657 66.1707 314.614 66.256C314.571 66.384 314.529 66.5333 314.486 66.704C314.443 66.832 314.379 67.0027 314.294 67.216C314.166 67.5573 313.953 67.984 313.654 68.496C313.398 69.008 313.035 69.6053 312.566 70.288C312.097 70.9707 311.777 71.568 311.606 72.08C311.478 72.5493 311.393 72.976 311.35 73.36C311.35 73.744 311.35 74.0853 311.35 74.384C311.35 74.6827 311.265 74.96 311.094 75.216C311.009 75.3013 310.817 75.3653 310.518 75.408C310.219 75.408 309.857 75.4507 309.43 75.536C309.003 75.6213 308.534 75.7707 308.022 75.984C307.553 76.1547 307.105 76.432 306.678 76.816C305.867 76.9867 305.227 77.2213 304.758 77.52C304.331 77.776 303.67 77.9467 302.774 78.032C301.793 78.2453 301.131 78.5227 300.79 78.864C300.449 79.1627 300.214 79.312 300.086 79.312C298.849 79.312 297.889 79.3547 297.206 79.44C296.523 79.4827 296.075 79.5467 295.862 79.632L295.222 79.76C295.094 79.8027 294.817 79.824 294.39 79.824L285.43 77.072L280.886 71.952C280.886 70.6293 280.865 69.52 280.822 68.624C280.822 67.6853 280.801 66.8747 280.758 66.192C280.758 65.4667 280.758 64.784 280.758 64.144C280.758 63.504 280.779 62.8 280.822 62.032C280.993 61.904 281.27 61.52 281.654 60.88C282.081 60.1973 282.507 59.4507 282.934 58.64C283.361 57.7867 283.766 56.912 284.15 56.016C284.534 55.12 284.833 54.3733 285.046 53.776C285.217 53.136 285.366 52.6453 285.494 52.304C285.622 51.92 285.729 51.6 285.814 51.344C285.942 51.088 286.049 50.832 286.134 50.576C286.219 50.32 286.305 50 286.39 49.616L288.054 47.952C288.054 47.9093 288.289 47.6107 288.758 47.056C289.27 46.4587 289.846 45.8187 290.486 45.136C291.169 44.4107 291.873 43.7493 292.598 43.152C293.323 42.5547 293.921 42.2347 294.39 42.192L297.526 41.872L298.806 42C298.977 42.0427 299.126 42.064 299.254 42.064C299.425 42.064 299.574 42.064 299.702 42.064H300.15L302.326 44.048C302.369 44.5173 302.475 44.9013 302.646 45.2C302.859 45.4987 303.286 45.7333 303.926 45.904C304.609 46.0747 304.971 46.16 305.014 46.16C305.057 46.2027 305.057 46.2453 305.014 46.288C305.825 46.288 306.678 46.0747 307.574 45.648C308.47 45.1787 309.345 44.944 310.198 44.944C310.411 44.944 310.646 45.0507 310.902 45.264C311.158 45.4773 311.414 45.7333 311.67 46.032L312.438 46.864C312.694 47.1627 312.929 47.3333 313.142 47.376C313.057 48.1867 313.078 48.784 313.206 49.168C313.377 49.5093 313.569 49.7653 313.782 49.936C314.038 50.064 314.273 50.1707 314.486 50.256C314.742 50.3413 314.913 50.512 314.998 50.768ZM304.246 70.224C304.502 70.0533 304.715 69.9467 304.886 69.904C305.057 69.8187 305.206 69.6907 305.334 69.52C305.505 69.3493 305.654 69.072 305.782 68.688C305.953 68.2613 306.145 67.6213 306.358 66.768C306.614 65.9147 306.827 65.2107 306.998 64.656C307.169 64.0587 307.297 63.568 307.382 63.184C307.467 62.7573 307.531 62.3733 307.574 62.032C307.617 61.6907 307.638 61.328 307.638 60.944C307.638 60.2187 307.681 59.408 307.766 58.512C307.851 57.5733 307.766 56.592 307.51 55.568C307.297 54.8427 307.147 54.032 307.062 53.136C307.019 52.24 306.955 51.472 306.87 50.832C306.443 50.576 306.187 50.1707 306.102 49.616C306.017 49.0613 305.739 48.528 305.27 48.016C305.014 47.8027 304.737 47.6747 304.438 47.632C304.182 47.5893 303.926 47.5893 303.67 47.632C303.457 47.6747 303.243 47.7387 303.03 47.824C302.859 47.9093 302.731 47.952 302.646 47.952C302.518 47.952 302.262 47.9307 301.878 47.888C301.494 47.8027 301.046 47.7813 300.534 47.824C300.065 47.824 299.574 47.9093 299.062 48.08C298.593 48.208 298.209 48.4853 297.91 48.912C296.587 50.4053 295.819 51.344 295.606 51.728C295.009 52.8373 294.475 53.904 294.006 54.928C293.579 55.952 293.195 56.72 292.854 57.232C292.683 57.6587 292.321 58.2987 291.766 59.152C291.254 60.0053 290.998 61.2213 290.998 62.8C291.041 62.928 290.977 63.248 290.806 63.76C290.635 64.2293 290.465 64.8053 290.294 65.488C290.166 66.1707 290.059 66.8747 289.974 67.6C289.889 68.2827 289.953 68.9013 290.166 69.456C290.337 69.8827 290.699 70.5653 291.254 71.504C291.809 72.4 292.769 73.36 294.134 74.384C294.987 74.9387 295.563 75.5147 295.862 76.112C296.161 76.6667 296.417 76.944 296.63 76.944C296.843 76.944 297.185 76.944 297.654 76.944C298.123 76.9013 298.465 76.9867 298.678 77.2L304.246 70.224ZM353.496 40.912L354.52 40.592L356.12 40.016L359.768 41.168L360.28 42.512C359.683 44.3467 359.149 46.16 358.68 47.952C358.211 49.744 358.125 51.6853 358.424 53.776C358.339 53.9467 358.232 54.2453 358.104 54.672C358.019 55.0987 357.955 55.5467 357.912 56.016C357.912 56.4427 357.955 56.8693 358.04 57.296C358.168 57.68 358.403 57.936 358.744 58.064L357.848 65.168L356.248 72.016L353.496 78.544C353.283 78.928 352.707 79.248 351.768 79.504C350.872 79.76 349.656 79.9733 348.12 80.144C346.627 80.272 344.877 80.3573 342.872 80.4C340.909 80.4427 338.755 80.4427 336.408 80.4L334.168 78.928H332.056C331.544 78.928 330.456 78.096 328.792 76.432C328.365 76.0053 328.003 75.6427 327.704 75.344C327.405 75.0027 327.149 74.7253 326.936 74.512C326.808 74.3413 326.616 74.128 326.36 73.872C326.36 73.6587 326.317 73.2747 326.232 72.72C326.189 72.1227 326.061 71.376 325.848 70.48C325.72 69.6267 325.507 69.0293 325.208 68.688C324.909 68.304 324.739 68.0053 324.696 67.792C324.653 67.6213 324.653 67.3227 324.696 66.896C324.781 66.4267 324.824 65.9787 324.824 65.552C324.867 65.0827 324.845 64.6773 324.76 64.336C324.717 63.9947 324.547 63.824 324.248 63.824L324.632 60.048C324.845 59.4507 324.995 58.6187 325.08 57.552C325.208 56.4427 325.251 55.312 325.208 54.16C325.165 53.0507 325.165 52.24 325.208 51.728C325.251 51.216 325.379 50.64 325.592 50L326.104 48.272C326.531 48.016 326.808 47.7173 326.936 47.376C327.107 46.992 327.171 46.6293 327.128 46.288C327.128 45.904 327.043 45.584 326.872 45.328C326.701 45.0293 326.509 44.8373 326.296 44.752C325.955 44.6667 325.784 44.432 325.784 44.048C325.827 43.6213 325.891 43.408 325.976 43.408C326.061 42.9387 326.061 42.576 325.976 42.32C325.933 42.2347 325.912 41.4667 325.912 40.016L327.32 39.44C327.832 39.44 328.365 39.3333 328.92 39.12C329.475 38.9067 330.072 38.8213 330.712 38.864C331.053 38.864 331.501 38.9067 332.056 38.992C332.611 39.0773 333.165 39.184 333.72 39.312C334.317 39.3973 334.851 39.4827 335.32 39.568C335.832 39.6533 336.216 39.7173 336.472 39.76L337.304 40.528C337.176 40.9973 337.091 41.3813 337.048 41.68C337.005 41.9787 336.984 42.2347 336.984 42.448C336.984 42.6187 337.027 42.832 337.112 43.088L337.368 46.672C337.368 46.672 337.325 46.8 337.24 47.056C337.155 47.184 337.069 47.3547 336.984 47.568C336.899 47.7387 336.813 47.952 336.728 48.208C336.515 48.72 336.323 49.1893 336.152 49.616C336.024 50 335.939 50.384 335.896 50.768C335.853 50.9813 335.832 51.4293 335.832 52.112C335.875 52.752 335.96 53.6053 336.088 54.672C336.131 55.184 336.152 55.6747 336.152 56.144C336.195 56.5707 336.216 56.9547 336.216 57.296V58.384C335.704 58.6827 335.469 59.216 335.512 59.984C335.555 60.752 335.661 61.6053 335.832 62.544C335.875 62.7147 335.832 62.9707 335.704 63.312C335.619 63.6107 335.512 63.9947 335.384 64.464C335.256 64.9333 335.149 65.4667 335.064 66.064C334.979 66.6613 334.979 67.344 335.064 68.112C335.149 68.88 335.213 69.584 335.256 70.224C335.299 70.8213 335.341 71.3547 335.384 71.824C335.427 72.08 335.448 72.336 335.448 72.592C335.448 72.848 335.448 73.0827 335.448 73.296L338.2 74.32L346.264 75.792L348.888 74.384C349.315 74.4267 349.699 74.1707 350.04 73.616C350.424 73.0613 350.701 72.5067 350.872 71.952L352.664 62.672L351.64 58.384L352.408 43.216L353.496 40.912ZM368.367 77.84C368.41 77.6267 368.431 77.4347 368.431 77.264C368.474 77.0507 368.516 76.8373 368.559 76.624C368.815 74.832 368.943 73.616 368.943 72.976C368.943 72.848 368.9 72.6347 368.815 72.336C368.772 72.0373 368.73 71.824 368.687 71.696L369.263 57.424C369.05 57.1253 369.007 56.7413 369.135 56.272C369.263 55.76 369.455 55.44 369.711 55.312C369.882 54.7147 370.116 54.032 370.415 53.264C370.756 52.496 370.884 51.6213 370.799 50.64C370.756 50.1707 370.799 49.7867 370.927 49.488C371.055 49.1467 371.162 48.9333 371.247 48.848L371.759 48.336C372.1 47.9947 372.292 47.696 372.335 47.44C372.378 47.1413 372.335 46.864 372.207 46.608C372.079 46.352 371.908 46.16 371.695 46.032C371.524 45.8613 371.354 45.7333 371.183 45.648C371.055 45.52 370.991 45.4347 370.991 45.392C371.076 45.136 371.119 44.9227 371.119 44.752C371.119 44.5813 370.991 44.3893 370.735 44.176L370.863 42.64C371.076 42.3413 371.46 42.192 372.015 42.192C372.612 42.1493 373.082 42.128 373.423 42.128C373.551 42.128 373.764 42.128 374.063 42.128C374.362 42.0853 374.703 42.064 375.087 42.064L376.239 42C376.452 41.9573 376.623 41.936 376.751 41.936C376.922 41.936 377.071 41.936 377.199 41.936L377.903 41.616C378.202 41.4453 378.436 41.36 378.607 41.36C378.735 41.36 378.97 41.424 379.311 41.552C379.695 41.6373 380.1 41.808 380.527 42.064L380.207 48.272L379.567 53.712C379.567 53.8827 379.46 54.2453 379.247 54.8C379.034 55.312 378.82 55.7387 378.607 56.08C378.522 56.1653 378.479 56.336 378.479 56.592C378.479 56.8053 378.479 57.0613 378.479 57.36C378.522 57.616 378.543 57.872 378.543 58.128C378.586 58.384 378.586 58.576 378.543 58.704L378.095 63.376C378.095 63.4613 378.052 63.5467 377.967 63.632C377.924 63.6747 377.86 63.824 377.775 64.08C377.732 64.2933 377.668 64.6133 377.583 65.04C377.498 65.4667 377.434 66.064 377.391 66.832C377.306 68.4533 377.22 69.584 377.135 70.224C377.05 70.864 377.007 71.2267 377.007 71.312C377.007 71.7387 377.135 72.0373 377.391 72.208C377.69 72.3787 377.839 72.6347 377.839 72.976C377.668 73.1467 377.711 73.4667 377.967 73.936C378.266 74.4053 378.778 74.704 379.503 74.832C380.228 74.96 381.039 74.9173 381.935 74.704C382.831 74.448 383.812 74.2773 384.879 74.192C385.263 74.192 385.498 74.2347 385.583 74.32C385.711 74.4053 385.818 74.512 385.903 74.64C386.031 74.7253 386.223 74.832 386.479 74.96C386.778 75.0453 387.311 75.1093 388.079 75.152C388.25 75.152 388.57 75.024 389.039 74.768C389.551 74.512 389.764 74.1067 389.679 73.552C390.02 73.552 390.447 73.488 390.959 73.36C391.514 73.232 392.068 73.1253 392.623 73.04C393.178 72.9547 393.668 72.9547 394.095 73.04C394.522 73.0827 394.799 73.296 394.927 73.68L395.183 74.64C395.14 74.7253 395.119 74.832 395.119 74.96C395.119 75.0453 395.098 75.152 395.055 75.28C395.012 75.4933 394.948 75.792 394.863 76.176C394.778 76.5173 394.692 76.9227 394.607 77.392C393.711 77.4773 393.22 77.4987 393.135 77.456C393.05 77.4133 392.964 77.392 392.879 77.392C392.751 77.392 392.538 77.4773 392.239 77.648C391.983 77.776 391.77 77.8827 391.599 77.968C391.343 78.0107 390.916 78.0747 390.319 78.16C389.764 78.2453 389.06 78.3307 388.207 78.416C387.738 78.5013 387.332 78.5653 386.991 78.608C386.692 78.608 386.436 78.6293 386.223 78.672C386.052 78.7147 385.839 78.736 385.583 78.736C385.54 78.736 385.391 78.7573 385.135 78.8C384.879 78.8 384.58 78.8 384.239 78.8H382.319C381.466 78.7147 380.847 78.6507 380.463 78.608C380.122 78.5653 379.844 78.5653 379.631 78.608C379.46 78.608 379.29 78.672 379.119 78.8C378.991 78.8853 378.692 79.056 378.223 79.312C378.052 79.3547 377.732 79.376 377.263 79.376H374.511C374.17 79.3333 373.892 79.312 373.679 79.312C373.508 79.2693 373.316 79.2267 373.103 79.184L370.607 79.952C370.01 79.8667 369.54 79.6107 369.199 79.184C368.858 78.7573 368.58 78.3093 368.367 77.84ZM400.367 77.84C400.41 77.6267 400.431 77.4347 400.431 77.264C400.474 77.0507 400.516 76.8373 400.559 76.624C400.815 74.832 400.943 73.616 400.943 72.976C400.943 72.848 400.9 72.6347 400.815 72.336C400.772 72.0373 400.73 71.824 400.687 71.696L401.263 57.424C401.05 57.1253 401.007 56.7413 401.135 56.272C401.263 55.76 401.455 55.44 401.711 55.312C401.882 54.7147 402.116 54.032 402.415 53.264C402.756 52.496 402.884 51.6213 402.799 50.64C402.756 50.1707 402.799 49.7867 402.927 49.488C403.055 49.1467 403.162 48.9333 403.247 48.848L403.759 48.336C404.1 47.9947 404.292 47.696 404.335 47.44C404.378 47.1413 404.335 46.864 404.207 46.608C404.079 46.352 403.908 46.16 403.695 46.032C403.524 45.8613 403.354 45.7333 403.183 45.648C403.055 45.52 402.991 45.4347 402.991 45.392C403.076 45.136 403.119 44.9227 403.119 44.752C403.119 44.5813 402.991 44.3893 402.735 44.176L402.863 42.64C403.076 42.3413 403.46 42.192 404.015 42.192C404.612 42.1493 405.082 42.128 405.423 42.128C405.551 42.128 405.764 42.128 406.063 42.128C406.362 42.0853 406.703 42.064 407.087 42.064L408.239 42C408.452 41.9573 408.623 41.936 408.751 41.936C408.922 41.936 409.071 41.936 409.199 41.936L409.903 41.616C410.202 41.4453 410.436 41.36 410.607 41.36C410.735 41.36 410.97 41.424 411.311 41.552C411.695 41.6373 412.1 41.808 412.527 42.064L412.207 48.272L411.567 53.712C411.567 53.8827 411.46 54.2453 411.247 54.8C411.034 55.312 410.82 55.7387 410.607 56.08C410.522 56.1653 410.479 56.336 410.479 56.592C410.479 56.8053 410.479 57.0613 410.479 57.36C410.522 57.616 410.543 57.872 410.543 58.128C410.586 58.384 410.586 58.576 410.543 58.704L410.095 63.376C410.095 63.4613 410.052 63.5467 409.967 63.632C409.924 63.6747 409.86 63.824 409.775 64.08C409.732 64.2933 409.668 64.6133 409.583 65.04C409.498 65.4667 409.434 66.064 409.391 66.832C409.306 68.4533 409.22 69.584 409.135 70.224C409.05 70.864 409.007 71.2267 409.007 71.312C409.007 71.7387 409.135 72.0373 409.391 72.208C409.69 72.3787 409.839 72.6347 409.839 72.976C409.668 73.1467 409.711 73.4667 409.967 73.936C410.266 74.4053 410.778 74.704 411.503 74.832C412.228 74.96 413.039 74.9173 413.935 74.704C414.831 74.448 415.812 74.2773 416.879 74.192C417.263 74.192 417.498 74.2347 417.583 74.32C417.711 74.4053 417.818 74.512 417.903 74.64C418.031 74.7253 418.223 74.832 418.479 74.96C418.778 75.0453 419.311 75.1093 420.079 75.152C420.25 75.152 420.57 75.024 421.039 74.768C421.551 74.512 421.764 74.1067 421.679 73.552C422.02 73.552 422.447 73.488 422.959 73.36C423.514 73.232 424.068 73.1253 424.623 73.04C425.178 72.9547 425.668 72.9547 426.095 73.04C426.522 73.0827 426.799 73.296 426.927 73.68L427.183 74.64C427.14 74.7253 427.119 74.832 427.119 74.96C427.119 75.0453 427.098 75.152 427.055 75.28C427.012 75.4933 426.948 75.792 426.863 76.176C426.778 76.5173 426.692 76.9227 426.607 77.392C425.711 77.4773 425.22 77.4987 425.135 77.456C425.05 77.4133 424.964 77.392 424.879 77.392C424.751 77.392 424.538 77.4773 424.239 77.648C423.983 77.776 423.77 77.8827 423.599 77.968C423.343 78.0107 422.916 78.0747 422.319 78.16C421.764 78.2453 421.06 78.3307 420.207 78.416C419.738 78.5013 419.332 78.5653 418.991 78.608C418.692 78.608 418.436 78.6293 418.223 78.672C418.052 78.7147 417.839 78.736 417.583 78.736C417.54 78.736 417.391 78.7573 417.135 78.8C416.879 78.8 416.58 78.8 416.239 78.8H414.319C413.466 78.7147 412.847 78.6507 412.463 78.608C412.122 78.5653 411.844 78.5653 411.631 78.608C411.46 78.608 411.29 78.672 411.119 78.8C410.991 78.8853 410.692 79.056 410.223 79.312C410.052 79.3547 409.732 79.376 409.263 79.376H406.511C406.17 79.3333 405.892 79.312 405.679 79.312C405.508 79.2693 405.316 79.2267 405.103 79.184L402.607 79.952C402.01 79.8667 401.54 79.6107 401.199 79.184C400.858 78.7573 400.58 78.3093 400.367 77.84ZM461.423 57.808C461.423 57.936 461.38 58.1493 461.295 58.448C461.252 58.704 461.188 58.9813 461.103 59.28C461.018 59.5787 460.932 59.856 460.847 60.112C460.804 60.368 460.783 60.56 460.783 60.688C459.29 60.816 458.308 60.944 457.839 61.072C457.412 61.1573 457.156 61.2 457.071 61.2H452.783C452.143 61.2 451.652 61.2 451.311 61.2C450.97 61.1573 450.692 61.136 450.479 61.136C450.308 61.136 450.18 61.1573 450.095 61.2C450.01 61.2 449.882 61.2213 449.711 61.264L448.367 62.096L446.383 61.2C446.34 60.9867 446.127 60.752 445.743 60.496C445.402 60.24 445.167 59.9413 445.039 59.6L447.087 56.784C447.94 56.784 448.388 56.8053 448.431 56.848C448.516 56.848 448.538 56.8267 448.495 56.784C448.495 56.7413 448.623 56.6987 448.879 56.656C449.135 56.5707 449.434 56.5067 449.775 56.464L450.735 56.272C451.034 56.2293 452.42 56.2933 454.895 56.464C454.938 56.464 455.236 56.5707 455.791 56.784C456.004 56.8693 456.538 56.848 457.391 56.72C458.287 56.5493 459.29 56.464 460.399 56.464L461.423 57.808ZM461.679 75.216C461.594 75.472 461.53 75.7707 461.487 76.112C461.487 76.4533 461.53 76.688 461.615 76.816C461.53 76.9013 461.274 77.008 460.847 77.136C460.42 77.264 459.823 77.4773 459.055 77.776C458.244 77.9893 457.476 78.032 456.751 77.904C456.026 77.776 455.322 77.7973 454.639 77.968C452.548 77.968 450.394 78.288 448.175 78.928C447.578 79.0987 447.066 79.248 446.639 79.376C446.212 79.504 445.85 79.6107 445.551 79.696C445.38 79.7813 445.21 79.8453 445.039 79.888C444.911 79.888 444.783 79.9093 444.655 79.952L439.663 80.144C439.279 80.272 438.874 80.3147 438.447 80.272C438.02 80.1867 437.594 80.1013 437.167 80.016C436.74 79.888 436.356 79.76 436.015 79.632C435.674 79.504 435.396 79.44 435.183 79.44C434.97 79.44 434.607 79.4613 434.095 79.504C433.583 79.504 433.114 79.504 432.687 79.504C432.26 79.2053 431.876 78.9067 431.535 78.608C431.194 78.2667 431.172 77.6907 431.471 76.88C431.556 76.4533 431.706 76.0267 431.919 75.6C432.175 75.1307 432.26 74.6613 432.175 74.192C432.132 74.0213 432.026 73.744 431.855 73.36C431.727 72.976 431.62 72.5707 431.535 72.144C431.492 71.7173 431.492 71.2907 431.535 70.864C431.62 70.4373 431.855 70.0747 432.239 69.776C432.58 69.2213 432.73 68.7093 432.687 68.24C432.644 67.728 432.452 67.1947 432.111 66.64C432.367 66.3413 432.516 66 432.559 65.616C432.644 65.1893 432.666 64.784 432.623 64.4C432.58 64.016 432.495 63.6747 432.367 63.376C432.282 63.0773 432.196 62.864 432.111 62.736C432.239 62.1387 432.367 61.3493 432.495 60.368C432.623 59.344 432.73 58.32 432.815 57.296C432.943 56.2293 433.028 55.248 433.071 54.352C433.114 53.456 433.114 52.7947 433.071 52.368C433.028 51.8133 433.071 51.2373 433.199 50.64C433.327 50.0427 433.476 49.4453 433.647 48.848C433.818 48.208 433.946 47.5893 434.031 46.992C434.116 46.3947 434.095 45.84 433.967 45.328L434.095 44.944C434.18 44.8587 434.031 44.1973 433.647 42.96L434.671 40.72H434.735C435.588 40.6773 436.463 40.6347 437.359 40.592C438.255 40.5493 439.066 40.5067 439.791 40.464C440.559 40.4213 441.178 40.4 441.647 40.4C442.159 40.3573 442.436 40.336 442.479 40.336H451.311C451.61 40.336 451.994 40.4853 452.463 40.784C452.975 41.04 454.682 41.168 457.583 41.168C457.626 41.3387 457.668 41.5093 457.711 41.68C457.754 41.8507 457.796 42.0213 457.839 42.192C457.967 42.96 458.116 43.5573 458.287 43.984L457.903 44.624C457.263 44.6667 456.772 44.688 456.431 44.688C456.09 44.688 455.834 44.688 455.663 44.688C455.535 44.6453 455.45 44.624 455.407 44.624C455.364 44.5813 455.322 44.56 455.279 44.56L450.287 43.92C449.05 43.664 447.514 43.8133 445.679 44.368C444.868 44.5813 444.207 44.6453 443.695 44.56C443.183 44.432 442.842 44.4107 442.671 44.496C442.159 44.3253 441.732 44.3253 441.391 44.496C441.05 44.6667 440.943 44.9867 441.071 45.456C441.199 45.8827 441.348 46.1387 441.519 46.224C441.69 46.3093 441.818 46.48 441.903 46.736C441.818 46.864 441.839 47.056 441.967 47.312C442.138 47.5253 442.33 47.7387 442.543 47.952C442.799 48.208 443.055 48.3787 443.311 48.464C443.567 48.5067 443.695 48.5493 443.695 48.592C443.695 48.6773 443.588 49.1253 443.375 49.936C443.162 50.704 442.991 51.6427 442.863 52.752C442.735 53.8613 442.692 55.056 442.735 56.336C442.82 57.616 443.14 58.8107 443.695 59.92C443.482 60.3893 443.29 61.2853 443.119 62.608C442.948 63.888 442.799 65.2107 442.671 66.576C442.586 67.9413 442.522 69.1787 442.479 70.288C442.436 71.3547 442.415 71.9307 442.415 72.016C442.372 72.016 442.308 72.1013 442.223 72.272C442.18 72.4 442.116 72.5493 442.031 72.72C441.946 72.8907 441.839 73.04 441.711 73.168C441.583 73.2533 441.434 73.2533 441.263 73.168V73.744C441.263 73.744 441.391 73.744 441.647 73.744H441.903C441.86 73.9573 441.839 74.256 441.839 74.64C441.839 75.024 441.818 75.344 441.775 75.6L446.639 74.96C447.492 75.0453 448.474 75.0667 449.583 75.024C450.735 74.9813 452.015 74.832 453.423 74.576C454.831 74.3627 455.983 74.2987 456.879 74.384C457.775 74.4693 458.436 74.32 458.863 73.936L460.463 73.872L461.679 75.216ZM495.683 46.864C495.256 46.864 494.766 46.864 494.211 46.864C493.656 46.8213 493.016 46.7787 492.291 46.736C491.054 46.6933 489.923 46.672 488.899 46.672C487.875 46.6293 487.192 46.5653 486.851 46.48V51.344C486.254 51.8133 485.827 52.752 485.571 54.16C485.23 58.384 485.016 61.776 484.931 64.336C484.846 66.8533 484.824 68.816 484.867 70.224C484.91 71.0773 484.952 71.8027 484.995 72.4C485.038 72.9547 485.102 73.4027 485.187 73.744L485.891 77.136L485.571 77.648L477.827 79.376H477.635C477.55 79.376 477.443 79.3973 477.315 79.44C477.23 79.44 477.144 79.44 477.059 79.44L474.947 77.968C474.947 77.9253 474.968 77.904 475.011 77.904C475.054 77.8613 475.096 77.7973 475.139 77.712C475.182 77.584 475.224 77.392 475.267 77.136C475.31 76.8373 475.331 76.432 475.331 75.92C475.331 75.4933 475.331 75.1947 475.331 75.024C475.374 74.8533 475.352 74.576 475.267 74.192C475.182 73.68 475.182 72.528 475.267 70.736C475.31 68.944 475.011 68.048 474.371 68.048C474.456 67.5787 474.499 67.024 474.499 66.384C474.542 65.744 474.584 65.1467 474.627 64.592C474.67 64.2507 474.691 63.9307 474.691 63.632C474.691 63.2907 474.691 62.9493 474.691 62.608C474.734 62.5653 474.755 62.5227 474.755 62.48C474.798 62.4373 474.84 62.3947 474.883 62.352L474.947 62.288C475.16 61.9467 475.267 61.6907 475.267 61.52C475.267 61.3067 475.352 60.8373 475.523 60.112V57.36C476.334 57.488 476.504 56.8053 476.035 55.312C475.651 53.6907 475.587 52.88 475.843 52.88C475.971 52.3253 476.099 51.6853 476.227 50.96C476.312 50.3627 476.398 49.7227 476.483 49.04C476.568 48.3147 476.654 47.5893 476.739 46.864L476.483 46.672C476.184 46.928 475.822 47.0133 475.395 46.928C475.011 46.8427 474.648 46.7787 474.307 46.736C473.326 46.864 472.494 46.9707 471.811 47.056C471.128 47.1413 470.574 47.2907 470.147 47.504C469.891 47.5893 469.656 47.6533 469.443 47.696C469.23 47.7387 469.123 48.0373 469.123 48.592L465.475 49.36L464.323 48.528C464.152 48.1013 464.003 47.696 463.875 47.312C463.747 46.8853 463.662 46.3733 463.619 45.776L464.387 43.92C464.984 43.8347 465.454 43.792 465.795 43.792C466.179 43.792 466.456 43.8133 466.627 43.856C466.84 43.856 466.99 43.8773 467.075 43.92C467.16 43.9627 467.246 43.984 467.331 43.984C467.8 43.7707 468.291 43.5787 468.803 43.408C469.315 43.1947 469.912 43.0027 470.595 42.832C471.32 42.6613 472.152 42.512 473.091 42.384C474.072 42.2133 475.246 42.0427 476.611 41.872L482.435 41.616L483.075 42.128C483.288 42.256 483.523 42.384 483.779 42.512C484.035 42.5973 484.291 42.64 484.547 42.64C484.846 42.6827 485.123 42.576 485.379 42.32C485.464 42.2347 485.55 42.1067 485.635 41.936C485.976 41.8507 486.531 41.8507 487.299 41.936C488.11 41.9787 489.326 42.128 490.947 42.384C493.763 42.8533 495.619 43.1093 496.515 43.152L496.899 43.792V45.904L495.683 46.864ZM531.361 57.808C531.361 57.936 531.318 58.1493 531.233 58.448C531.19 58.704 531.126 58.9813 531.041 59.28C530.955 59.5787 530.87 59.856 530.785 60.112C530.742 60.368 530.721 60.56 530.721 60.688C529.227 60.816 528.246 60.944 527.777 61.072C527.35 61.1573 527.094 61.2 527.009 61.2H522.721C522.081 61.2 521.59 61.2 521.249 61.2C520.907 61.1573 520.63 61.136 520.417 61.136C520.246 61.136 520.118 61.1573 520.033 61.2C519.947 61.2 519.819 61.2213 519.649 61.264L518.305 62.096L516.321 61.2C516.278 60.9867 516.065 60.752 515.681 60.496C515.339 60.24 515.105 59.9413 514.977 59.6L517.025 56.784C517.878 56.784 518.326 56.8053 518.369 56.848C518.454 56.848 518.475 56.8267 518.433 56.784C518.433 56.7413 518.561 56.6987 518.817 56.656C519.073 56.5707 519.371 56.5067 519.713 56.464L520.673 56.272C520.971 56.2293 522.358 56.2933 524.833 56.464C524.875 56.464 525.174 56.5707 525.729 56.784C525.942 56.8693 526.475 56.848 527.329 56.72C528.225 56.5493 529.227 56.464 530.337 56.464L531.361 57.808ZM531.617 75.216C531.531 75.472 531.467 75.7707 531.425 76.112C531.425 76.4533 531.467 76.688 531.553 76.816C531.467 76.9013 531.211 77.008 530.785 77.136C530.358 77.264 529.761 77.4773 528.993 77.776C528.182 77.9893 527.414 78.032 526.689 77.904C525.963 77.776 525.259 77.7973 524.577 77.968C522.486 77.968 520.331 78.288 518.113 78.928C517.515 79.0987 517.003 79.248 516.577 79.376C516.15 79.504 515.787 79.6107 515.489 79.696C515.318 79.7813 515.147 79.8453 514.977 79.888C514.849 79.888 514.721 79.9093 514.593 79.952L509.601 80.144C509.217 80.272 508.811 80.3147 508.385 80.272C507.958 80.1867 507.531 80.1013 507.105 80.016C506.678 79.888 506.294 79.76 505.953 79.632C505.611 79.504 505.334 79.44 505.121 79.44C504.907 79.44 504.545 79.4613 504.033 79.504C503.521 79.504 503.051 79.504 502.625 79.504C502.198 79.2053 501.814 78.9067 501.473 78.608C501.131 78.2667 501.11 77.6907 501.409 76.88C501.494 76.4533 501.643 76.0267 501.857 75.6C502.113 75.1307 502.198 74.6613 502.113 74.192C502.07 74.0213 501.963 73.744 501.793 73.36C501.665 72.976 501.558 72.5707 501.473 72.144C501.43 71.7173 501.43 71.2907 501.473 70.864C501.558 70.4373 501.793 70.0747 502.177 69.776C502.518 69.2213 502.667 68.7093 502.625 68.24C502.582 67.728 502.39 67.1947 502.049 66.64C502.305 66.3413 502.454 66 502.497 65.616C502.582 65.1893 502.603 64.784 502.561 64.4C502.518 64.016 502.433 63.6747 502.305 63.376C502.219 63.0773 502.134 62.864 502.049 62.736C502.177 62.1387 502.305 61.3493 502.433 60.368C502.561 59.344 502.667 58.32 502.753 57.296C502.881 56.2293 502.966 55.248 503.009 54.352C503.051 53.456 503.051 52.7947 503.009 52.368C502.966 51.8133 503.009 51.2373 503.137 50.64C503.265 50.0427 503.414 49.4453 503.585 48.848C503.755 48.208 503.883 47.5893 503.969 46.992C504.054 46.3947 504.033 45.84 503.905 45.328L504.033 44.944C504.118 44.8587 503.969 44.1973 503.585 42.96L504.609 40.72H504.673C505.526 40.6773 506.401 40.6347 507.297 40.592C508.193 40.5493 509.003 40.5067 509.729 40.464C510.497 40.4213 511.115 40.4 511.585 40.4C512.097 40.3573 512.374 40.336 512.417 40.336H521.249C521.547 40.336 521.931 40.4853 522.401 40.784C522.913 41.04 524.619 41.168 527.521 41.168C527.563 41.3387 527.606 41.5093 527.649 41.68C527.691 41.8507 527.734 42.0213 527.777 42.192C527.905 42.96 528.054 43.5573 528.225 43.984L527.841 44.624C527.201 44.6667 526.71 44.688 526.369 44.688C526.027 44.688 525.771 44.688 525.601 44.688C525.473 44.6453 525.387 44.624 525.345 44.624C525.302 44.5813 525.259 44.56 525.217 44.56L520.225 43.92C518.987 43.664 517.451 43.8133 515.617 44.368C514.806 44.5813 514.145 44.6453 513.633 44.56C513.121 44.432 512.779 44.4107 512.609 44.496C512.097 44.3253 511.67 44.3253 511.329 44.496C510.987 44.6667 510.881 44.9867 511.009 45.456C511.137 45.8827 511.286 46.1387 511.457 46.224C511.627 46.3093 511.755 46.48 511.841 46.736C511.755 46.864 511.777 47.056 511.905 47.312C512.075 47.5253 512.267 47.7387 512.481 47.952C512.737 48.208 512.993 48.3787 513.249 48.464C513.505 48.5067 513.633 48.5493 513.633 48.592C513.633 48.6773 513.526 49.1253 513.312 49.936C513.099 50.704 512.929 51.6427 512.801 52.752C512.673 53.8613 512.63 55.056 512.673 56.336C512.758 57.616 513.078 58.8107 513.633 59.92C513.419 60.3893 513.227 61.2853 513.057 62.608C512.886 63.888 512.737 65.2107 512.609 66.576C512.523 67.9413 512.459 69.1787 512.417 70.288C512.374 71.3547 512.353 71.9307 512.353 72.016C512.31 72.016 512.246 72.1013 512.161 72.272C512.118 72.4 512.054 72.5493 511.969 72.72C511.883 72.8907 511.777 73.04 511.649 73.168C511.521 73.2533 511.371 73.2533 511.201 73.168V73.744C511.201 73.744 511.329 73.744 511.585 73.744H511.841C511.798 73.9573 511.777 74.256 511.777 74.64C511.777 75.024 511.755 75.344 511.713 75.6L516.577 74.96C517.43 75.0453 518.411 75.0667 519.521 75.024C520.673 74.9813 521.953 74.832 523.361 74.576C524.769 74.3627 525.921 74.2987 526.817 74.384C527.713 74.4693 528.374 74.32 528.801 73.936L530.401 73.872L531.617 75.216Z" fill="black"/>
<defs>
<linearGradient id="paint0_linear_1_10" x1="266" y1="-159.5" x2="376.5" y2="429.5" gradientUnits="userSpaceOnUse">
<stop offset="0.117104" stop-color="#D7DA5F"/>
<stop offset="1" stop-color="#F225AD" stop-opacity="0"/>
</linearGradient>
</defs>
</svg>
